<svg xmlns="http://www.w3.org/2000/svg" viewBox="59 284 878 168"><path fill="#ef4023" d="M73.7 314.2c-1.5 10.6-5.4 38.4-8.7 61.8s-6 42.9-6 43.3 5.3.6 11.7.5l11.7-.3 4.2-31c2.3-17.1 4.4-32.1 4.6-33.5.3-1.9 4.6 5.9 17.3 31.2l17 33.8h10.3l16.7-33.3c9.2-18.2 16.8-33.3 17-33.5.1-.1 2.1 13.4 4.4 30 2.3 16.7 4.5 31.8 4.8 33.5l.5 3.3h11.4c13 0 12 .9 10.4-10-.5-3.6-3.2-21.8-5.9-40.5-2.8-18.7-6.2-42.1-7.6-52s-2.8-19-3.1-20.3c-.4-1.9-1.1-2.2-5.7-2.2h-5.2l-21.4 42.7-21.3 42.8-21.4-42.8L88 295H76.4zm171.8 8.9c-2.7.6-8.1 2.5-12 4.4-9.6 4.6-17.5 12.6-22.7 23.2-3.8 7.6-4.1 9-4.6 18.3-.4 9-.2 11 2.2 18.3 3 9.2 8.9 18 15.8 23.5 6.3 5 15.8 9.2 23.8 10.5 11 1.7 21.3-.4 34.3-7.1.4-.2.7 1 .7 2.7v3.1h23v-96h-23v7.1l-2.7-2.1c-7.2-5.2-24-8.1-34.8-5.9m24.1 24.7c11.2 5.8 16.8 19.6 13 32.3-.8 3.1-2.8 7.3-4.4 9.5-1.6 2.1-5.3 5.2-8.3 6.9-4.7 2.6-6.4 2.9-13.4 3-6.3 0-8.8-.5-12-2.2-4.8-2.6-10.6-8.5-13-13.3-2.6-5.1-3.1-14.7-1.1-20.7 3.1-9.3 11.4-16.5 20.9-18.2 5.6-.9 13.5.2 18.3 2.7m87.7-24.4c-16.8 3.9-31.3 17.3-36.3 33.4-1.3 4.2-2 9.3-2 14.7 0 14.5 4.9 25.7 15.6 35.5 10.9 9.9 26.2 14.5 40.8 12.2 6-.9 12.8-3.3 19.8-7 .4-.2 0 1.7-.8 4.2-1.9 5.5-7.6 10.7-13.6 12.6-5.2 1.5-17.9 1.6-23.4.1-4.7-1.2-11.3-6.6-14.4-11.6l-2.2-3.5h-12c-11.7 0-12 .1-11.5 2.1 1.3 4.7 9.6 17.8 14.7 23 6.3 6.4 10.9 9.1 19.7 11.3 6.9 1.8 23.2 2.1 31.4.6 11.9-2.2 25-11.4 29.9-21.1 5.2-10 5.3-11.4 5.7-60.2l.4-45.7H396v7.1l-3-2.1c-8-5.7-24.1-8.2-35.7-5.6m25.5 24.5c4.6 2.4 9.9 8.1 12 13 2.2 5.3 2 16.6-.5 22.1-2.4 5.4-8.6 11.3-13.9 13.1-2.2.7-7.3 1.4-11.4 1.3-5.7 0-8.8-.5-12.8-2.3-5.7-2.6-10.4-7.2-12.7-12.8-.8-1.9-1.5-6.5-1.5-10.2 0-7.7 2.4-13.8 7.3-18.9 8.3-8.7 22.4-11 33.5-5.3m49.7-22.7c-.3.7-.4 22.2-.3 47.8l.3 46.5 11.3.3 11.2.3V324h-11c-7.9 0-11.2.4-11.5 1.2m39.7 20.6-7.3 6.7.1 5.5c0 6 2 15.1 4.7 21.5 5.4 12.7 17.6 26.2 29.2 32.4 13.8 7.3 30.6 10.8 45.6 9.6 11.5-1 23.8-4.9 32-10 6.9-4.3 15.7-12.6 22.8-21.7l3.7-4.7-4.7-3.3c-2.7-1.8-8.3-5.6-12.6-8.4l-7.9-5.1-8.6 8.6c-6.8 6.8-10 9.1-14.7 11-16.2 6.3-36.6 2.3-47.4-9.4-5.1-5.6-9-13.5-9.8-20.3-.5-4.7-.9-5.2-8.8-12-4.6-4-8.5-7.2-8.7-7.2-.1 0-3.6 3.1-7.6 6.8"/><path fill="#0076ff" d="M523.7 285.5c-4.4.8-10.9 2.7-14.5 4.2-6.8 2.6-15.5 7.7-20.4 11.9-5.4 4.4-12.6 13.6-16.1 20.2-3.5 6.7-7.1 17.4-6.5 19.2.2.5 3.4-1.8 7.1-5.1l6.9-6 8.3 7.6c4.6 4.1 8.5 7.5 8.7 7.5.3 0 1-1.9 1.7-4.2 5.2-17.3 25.9-28.5 46.3-25 3.9.7 9.2 2.2 11.7 3.3 2.8 1.2 7.6 5.1 12.6 10.2l8.1 8.3 11.8-7.2c6.5-4 12-7.5 12.3-7.8 1.2-1.2-5.7-10.7-13.6-18.6-9.6-9.6-16.4-13.7-28.1-17-10-2.8-26.1-3.4-36.3-1.5m-87.8 6.8c-4.8 3.2-7.1 8.1-6.6 14 .3 3.8 1.1 5.5 3.8 8.3 1.8 1.9 4.9 3.9 6.9 4.4 10.7 2.9 21.8-8.5 18-18.5-3.5-9.3-14.4-13.3-22.1-8.2m174.3 63.4.3 63.8h23v-127l-11.8-.3-11.7-.3zm67.3-32.5c-17.1 3.2-32.2 18.1-37 36.3-3 11.9-1.4 26.3 4.3 36.9 3.7 7 13.5 16.5 20.6 19.9 3.2 1.6 9.3 3.6 13.5 4.4 6.3 1.3 9.1 1.4 16.4.5 14.5-1.8 24.8-7.7 33.2-19.2 1.9-2.6 3.5-5.2 3.5-5.6 0-.5-4.1-3.6-9.1-6.9-8.8-5.7-9.2-5.8-10.5-4-3.3 4.6-8.8 9.5-12.8 11.4-5.6 2.7-16.4 2.8-22.1.2-6.5-2.9-11.8-9-13.9-15.9l-.7-2.2h75.4l-.7-8.6c-.4-4.7-1.6-11.3-2.6-14.7-7.3-23.6-31.8-37.4-57.5-32.5m23 24.6c2.2 1.1 5.6 3.6 7.4 5.6l3.5 3.6h-22.2c-21.9 0-22.3 0-21.2-2 1.4-2.7 7.3-7.2 11.2-8.7 4.9-1.9 16.5-1.1 21.3 1.5M889 323.5c-3 .9-7.4 2.7-9.8 4-2.5 1.4-4.5 2.5-4.6 2.5s-.2-1.2-.1-2.8v-2.7l-11.8-.3-11.7-.3.2 47.8.3 47.8h23l.5-29c.5-27.4.6-29.2 2.7-33.1 2.4-4.5 8.2-10 12-11.5 3.8-1.4 13.1-1.1 16.3.6 1.6.9 3.8 3 4.7 4.8 1.5 2.7 1.8 6.3 2.1 22.2.1 10.4.3 25.1.5 32.5l.2 13.5 11.8.3 11.7.3v-28.8c0-15.8-.5-31.9-1-35.7-.6-3.8-2.2-9.5-3.6-12.6-3.2-7.2-10.2-14.1-17.7-17.5-7.3-3.4-17.8-4.2-25.7-2m-108.5 1.6c-11.4 2.6-22.1 8.9-28.4 16.9-4.6 5.8-8.6 13.8-10 20.1-1.7 7.3-1.3 19.5.9 26.8 2.5 8.3 8.6 17.7 14.9 23 6.1 5.1 15.9 9.8 23.6 11.2 9.7 1.8 23.3-.4 31.2-5.1 1.9-1.1 3.6-2 3.9-2 .2 0 .4 1.3.4 3v3h23v-96h-23v3c0 1.6-.2 3-.4 3s-2.3-1.1-4.7-2.5c-8.5-4.7-21.8-6.6-31.4-4.4m22.4 24.8c5.4 2.8 8.5 6.2 11.6 12.6 1.8 3.6 2.5 6.7 2.5 11 0 3.3-.5 7.7-1 9.7-1.6 5.7-6.9 11.9-12.9 15-4.3 2.3-6.6 2.8-12 2.8-10.8-.1-19-5-23.9-14.4-2.2-4.2-2.7-6.4-2.7-12.6 0-6.5.4-8.2 3-12.9 3.2-5.9 9.1-10.8 15.3-12.8 5.3-1.8 14.9-1 20.1 1.6"/></svg>